<svg width="57" height="35" viewBox="0 0 57 35" fill="none" xmlns="http://www.w3.org/2000/svg">
<path d="M22.328 0.495999V24.304C22.328 25.84 22.072 27.248 21.56 28.528C21.08 29.776 20.36 30.848 19.4 31.744C18.44 32.608 17.272 33.296 15.896 33.808C14.552 34.288 13.016 34.528 11.288 34.528C9.624 34.528 8.152 34.304 6.872 33.856C5.624 33.408 4.536 32.768 3.608 31.936C2.712 31.104 1.976 30.112 1.4 28.96C0.824 27.808 0.424 26.528 0.2 25.12L7.016 23.776C7.56 26.688 8.952 28.144 11.192 28.144C12.248 28.144 13.144 27.808 13.88 27.136C14.648 26.464 15.032 25.408 15.032 23.968V6.352H4.856V0.495999H22.328ZM56.6454 34H48.1974L40.9494 21.664H40.8054L33.7494 34H25.8774L36.6294 16.672L26.4054 0.495999H34.9014L41.4294 11.824H41.5734L48.1974 0.495999H56.0694L45.7494 16.816L56.6454 34Z" fill="white"/>
</svg>
