<svg width="43" height="42" viewBox="0 0 43 42" fill="none" xmlns="http://www.w3.org/2000/svg">
<path d="M21.5 0C9.62662 0 0 9.54998 0 21.3288C0 31.3231 6.93733 39.6858 16.2898 42C16.1895 41.7121 16.125 41.3779 16.125 40.9638V37.3183C15.2525 37.3183 13.7905 37.3183 13.4232 37.3183C11.9522 37.3183 10.6443 36.6909 10.01 35.5249C9.30592 34.2292 9.18408 32.2474 7.439 31.0352C6.92121 30.6317 7.31537 30.1714 7.912 30.2336C9.01388 30.5429 9.92762 31.2929 10.7876 32.4056C11.644 33.52 12.0472 33.7724 13.6471 33.7724C14.4229 33.7724 15.5839 33.728 16.6768 33.5573C17.2645 32.0768 18.2804 30.7135 19.522 30.0701C12.3625 29.3396 8.94579 25.8061 8.94579 21.0089C8.94579 18.9435 9.83267 16.9457 11.3395 15.2625C10.845 13.5918 10.2233 10.1845 11.5294 8.88701C14.7508 8.88701 16.6983 10.9595 17.166 11.5193C18.7713 10.9737 20.5343 10.6644 22.3869 10.6644C24.243 10.6644 26.0132 10.9737 27.6221 11.5229C28.0844 10.9666 30.0337 8.88701 33.2623 8.88701C34.5738 10.1863 33.9449 13.6078 33.445 15.275C34.9429 16.9546 35.8244 18.9471 35.8244 21.0089C35.8244 25.8025 32.413 29.3342 25.2643 30.0683C27.2315 31.0868 28.6667 33.9484 28.6667 36.1044V40.9638C28.6667 41.1486 28.6255 41.2819 28.604 41.4401C36.9818 38.527 43 30.6353 43 21.3288C43 9.54998 33.3734 0 21.5 0Z" fill="white"/>
</svg>
