<svg width="43" height="43" viewBox="0 0 43 43" fill="none" xmlns="http://www.w3.org/2000/svg">
<path d="M21.5 0C9.64523 0 0 9.64523 0 21.5C0 33.3548 9.64523 43 21.5 43C33.3548 43 43 33.3548 43 21.5C43 9.64523 33.3548 0 21.5 0ZM15.9861 6.61538H27.0107C32.1789 6.61538 36.3846 10.8195 36.3846 15.9861V27.0107C36.3846 32.1789 32.1805 36.3846 27.0139 36.3846H15.9893C10.8211 36.3846 6.61538 32.1805 6.61538 27.0139V15.9893C6.61538 10.8211 10.8195 6.61538 15.9861 6.61538ZM15.9861 9.92308C12.6437 9.92308 9.92308 12.6453 9.92308 15.9893V27.0139C9.92308 30.3563 12.6453 33.0769 15.9893 33.0769H27.0139C30.3563 33.0769 33.0769 30.3547 33.0769 27.0107V15.9861C33.0769 12.6437 30.3547 9.92308 27.0107 9.92308H15.9861ZM29.2201 12.6784C29.8287 12.6784 30.3216 13.1713 30.3216 13.7799C30.3216 14.3885 29.8287 14.8846 29.2201 14.8846C28.6115 14.8846 28.1154 14.3885 28.1154 13.7799C28.1154 13.1713 28.6115 12.6784 29.2201 12.6784ZM21.5 13.2308C26.0597 13.2308 29.7692 16.9403 29.7692 21.5C29.7692 26.0597 26.0597 29.7692 21.5 29.7692C16.9403 29.7692 13.2308 26.0597 13.2308 21.5C13.2308 16.9403 16.9403 13.2308 21.5 13.2308ZM21.5 16.5385C20.1841 16.5385 18.9221 17.0612 17.9917 17.9917C17.0612 18.9221 16.5385 20.1841 16.5385 21.5C16.5385 22.8159 17.0612 24.0779 17.9917 25.0083C18.9221 25.9388 20.1841 26.4615 21.5 26.4615C22.8159 26.4615 24.0779 25.9388 25.0083 25.0083C25.9388 24.0779 26.4615 22.8159 26.4615 21.5C26.4615 20.1841 25.9388 18.9221 25.0083 17.9917C24.0779 17.0612 22.8159 16.5385 21.5 16.5385Z" fill="white"/>
</svg>
