<svg width="44" height="43" viewBox="0 0 44 43" fill="none" xmlns="http://www.w3.org/2000/svg">
<path d="M22 0C9.86843 0 0 9.64415 0 21.5C0 33.3558 9.86843 43 22 43C34.1316 43 44 33.3558 44 21.5C44 9.64415 34.1316 0 22 0ZM32.7484 17.3159C32.758 17.5365 32.7637 17.7609 32.7637 17.9862C32.7637 24.8269 27.433 32.7174 17.687 32.7174C14.695 32.7174 11.9087 31.8602 9.56522 30.3907C9.97939 30.4393 10.3993 30.4627 10.8288 30.4627C13.3119 30.4627 15.597 29.6363 17.4087 28.2473C15.0901 28.2061 13.135 26.7058 12.4587 24.6512C12.783 24.7119 13.1149 24.7446 13.4573 24.7446C13.9403 24.7446 14.409 24.682 14.8519 24.5623C12.43 24.0847 10.604 21.9945 10.604 19.4846C10.604 19.4622 10.604 19.4407 10.604 19.4192C11.3185 19.8071 12.1344 20.0408 13.0039 20.0679C11.5806 19.1378 10.647 17.5543 10.647 15.7576C10.647 14.8088 10.9072 13.9198 11.3635 13.1533C13.9777 16.2858 17.8822 18.347 22.285 18.5638C22.1942 18.1843 22.1463 17.7898 22.1463 17.3842C22.1463 14.5247 24.5185 12.2064 27.4455 12.2064C28.9692 12.2064 30.3457 12.8346 31.3117 13.8413C32.5179 13.6095 33.6533 13.1786 34.6768 12.5859C34.2817 13.7937 33.441 14.8088 32.3457 15.4501C33.419 15.323 34.4386 15.0463 35.3904 14.634C34.6806 15.6726 33.7824 16.5858 32.7484 17.3159Z" fill="white"/>
</svg>
